<?xml version="1.0" encoding="UTF-8"?>
<svg id="Layer_2" data-name="Layer 2" xmlns="http://www.w3.org/2000/svg" viewBox="0 0 22 22">
  <defs>
    <style>
      .cls-1 {
        fill: #f68b1f;
      }
    </style>
  </defs>
  <g id="Layer_1-2" data-name="Layer 1">
    <polygon class="cls-1" points="5.87 22 8.8 22 8.8 19.07 7.43 19.07 5.87 19.07 5.87 17.6 4.4 17.6 4.4 16.13 5.87 16.13 5.87 17.6 7.46 17.6 10.27 17.6 10.27 16.13 7.33 16.15 7.33 14.67 5.87 14.67 5.87 13.2 4.4 13.2 4.4 8.8 5.87 8.8 5.87 7.33 4.4 7.33 4.4 5.87 5.92 5.87 7.33 5.87 7.33 7.33 8.8 7.33 8.8 5.87 13.2 5.87 13.2 7.33 14.67 7.33 14.67 5.87 16.14 5.87 17.6 5.87 17.6 7.33 16.13 7.33 16.13 8.8 17.6 8.8 17.6 13.2 16.13 13.2 16.13 14.67 14.67 14.67 14.67 16.13 11.73 16.13 11.73 17.6 13.2 17.6 13.2 22 16.13 22 16.13 20.53 17.6 20.53 17.6 19.07 19.07 19.07 19.07 17.6 20.53 17.6 20.53 16.13 22 16.13 22 7.33 20.53 7.33 20.53 4.4 17.6 4.4 17.6 1.47 14.67 1.47 14.67 0 7.33 0 7.33 1.47 4.4 1.47 4.4 2.93 2.93 2.93 2.93 4.4 1.47 4.4 1.47 7.33 0 7.33 0 16.13 1.47 16.13 1.47 17.6 2.93 17.6 2.93 19.07 4.4 19.07 4.4 20.53 5.87 20.53 5.87 22"/>
  </g>
</svg>