<?xml version="1.0" encoding="UTF-8"?>
<svg id="Layer_2" data-name="Layer 2" xmlns="http://www.w3.org/2000/svg" viewBox="0 0 22 22">
  <defs>
    <style>
      .cls-1 {
        fill: #f68b1f;
      }
    </style>
  </defs>
  <g id="Layer_1-2" data-name="Layer 1">
    <polygon class="cls-1" points="5.87 22 8.8 22 8.8 19.07 7.43 19.07 5.87 19.07 5.86 20.45 4.4 20.45 4.4 18.98 5.87 18.98 5.87 17.6 7.46 17.6 10.27 17.6 10.25 15.69 7.37 15.15 7.66 13.69 6.22 13.41 6.5 11.97 5.06 11.69 5.9 7.38 7.34 7.66 7.62 6.22 6.18 5.94 6.46 4.5 7.95 4.79 9.33 5.06 9.05 6.5 10.49 6.78 10.77 5.34 15.09 6.18 14.81 7.62 16.25 7.9 16.53 6.46 17.98 6.74 19.41 7.02 19.13 8.46 17.69 8.18 17.41 9.61 18.85 9.89 18.01 14.21 16.57 13.93 16.29 15.37 14.85 15.09 14.57 16.53 11.69 15.97 11.73 17.6 13.2 17.6 13.2 22 16.13 22 16.13 20.53 17.6 20.53 17.6 19.07 19.07 19.07 19.07 17.6 20.53 17.6 20.53 16.13 22 16.13 22 7.33 20.53 7.33 20.53 4.4 17.6 4.4 17.6 1.47 14.67 1.47 14.67 0 7.33 0 7.33 1.47 4.4 1.47 4.4 2.93 2.93 2.93 2.93 4.4 1.47 4.4 1.47 7.33 0 7.33 0 16.13 1.47 16.13 1.47 17.6 2.93 17.6 2.93 19.07 4.4 19.07 4.4 20.53 5.87 20.53 5.87 22"/>
  </g>
</svg>