<?xml version="1.0" encoding="UTF-8"?>
<svg id="Layer_2" data-name="Layer 2" xmlns="http://www.w3.org/2000/svg" viewBox="0 0 22 22">
  <defs>
    <style>
      .cls-1 {
        fill: #cb8c84;
      }
    </style>
  </defs>
  <g id="Layer_1-2" data-name="Layer 1">
    <polygon class="cls-1" points="2.93 22 4.4 22 4.4 18.83 4.4 10.03 4.84 5.22 4.84 3.18 6.89 3.18 6.89 5.22 4.84 5.22 4.4 10.03 7.33 10.03 7.33 18.83 8.8 18.83 8.8 10.03 11.73 10.03 11.73 11.49 13.2 11.49 13.2 10.03 16.13 10.03 16.13 11.49 17.6 11.49 17.6 18.83 14.67 18.83 14.67 12.96 11.73 12.96 11.73 18.83 8.8 18.83 7.33 18.83 4.4 18.83 4.4 22 19.07 22 19.07 20.53 20.53 20.53 20.53 19.07 22 19.07 22 2.93 20.53 2.93 20.53 1.47 19.07 1.47 19.07 0 2.93 0 2.93 1.47 1.47 1.47 1.47 2.93 0 2.93 0 19.07 1.47 19.07 1.47 20.53 2.93 20.53 2.93 22"/>
  </g>
</svg>