<?xml version="1.0" encoding="UTF-8"?>
<svg id="Layer_2" data-name="Layer 2" xmlns="http://www.w3.org/2000/svg" viewBox="0 0 22 22">
  <defs>
    <style>
      .cls-1 {
        fill: #cb8c84;
      }
    </style>
  </defs>
  <g id="Layer_1-2" data-name="Layer 1">
    <polygon class="cls-1" points="2.93 22 4.4 22 4.4 17.6 4.4 8.8 4.4 7.33 4.4 4.4 7.33 4.4 7.33 7.33 4.4 7.33 4.4 8.8 7.33 8.8 7.33 17.6 8.8 17.6 8.8 8.8 11.73 8.8 11.73 10.27 13.2 10.27 13.2 8.8 16.13 8.8 16.13 10.27 17.6 10.27 17.6 17.6 14.67 17.6 14.67 11.73 11.73 11.73 11.73 17.6 8.8 17.6 7.33 17.6 4.4 17.6 4.4 22 19.07 22 19.07 20.53 20.53 20.53 20.53 19.07 22 19.07 22 2.93 20.53 2.93 20.53 1.47 19.07 1.47 19.07 0 2.93 0 2.93 1.47 1.47 1.47 1.47 2.93 0 2.93 0 19.07 1.47 19.07 1.47 20.53 2.93 20.53 2.93 22"/>
  </g>
</svg>