<svg width="22" height="22" viewBox="0 0 22 22" fill="none" xmlns="http://www.w3.org/2000/svg">
<path d="M20.5333 7.33358V5.86687V4.40015H19.0666H17.5998V2.93343V1.46672H16.1331H14.6664V0H13.1997H11.733H10.2663H8.79955H7.33358V1.46672H5.86687H4.40015V2.93343H2.93343V4.40015H1.46672V5.86687V7.33358H0V8.79955V10.2663V11.733V13.1997V14.6664V16.1331H1.46672V17.5998H2.93343V19.0666H4.40015V20.5333H5.86687V22H7.33358H8.79955V20.5333V19.0666H7.33358H5.86687V17.5998H4.40015V16.1331H5.86687V17.5998H7.33358H8.79955H10.2663V16.1331H8.79955H7.33358V14.6664H5.86687V13.1997H4.40015V11.733V10.2663V8.79955H5.86687V7.33358H4.40015V5.86687H5.86687H7.33358V7.33358H8.79955V5.86687H10.2663H11.733H13.1997V7.33358H14.6664V5.86687H16.1331H17.5998V7.33358H16.1331V8.79955H17.5998V10.2663V11.733V13.1997H16.1331V14.6664H14.6664V16.1331H13.1997H11.733V17.5998H13.1997V19.0666V20.5333V22H14.6664H16.1331V20.5333H17.5998V19.0666H19.0666V17.5998H20.5333V16.1331H22V14.6664V13.1997V11.733V10.2663V8.79955V7.33358H20.5333Z" fill="hsl(120, 73%, 54%)"/>
</svg>
